# xmcd
#
# Track frame offsets: 
#        150
#        47859
#        71929
#        103301
#        130648
#        168134
#        184629
#        222455
#        264824
#
# Disc length: 3800 seconds
#
# Revision: 1
# Processed by: cddbd v1.5.2PL0 Copyright (c) Steve Scherf et al.
# Submitted via: ExactAudioCopy v0.99pb5
#
DISCID=810ed609
DTITLE=La Marmite Infernale - Envoyez la suite
DYEAR=2007
DGENRE=Jazz
TTITLE0=Camisole
TTITLE1=Roméo et Juliette au parquet Fayet
TTITLE2=La boîte
TTITLE3=El maïs
TTITLE4=Les pompes
TTITLE5=Aïe, aïe, aïe
TTITLE6=Jolie montagne
TTITLE7=Suite météo
TTITLE8=Hélicir
EXTD=YEAR: 2007
EXTT0=
EXTT1=
EXTT2=
EXTT3=
EXTT4=
EXTT5=
EXTT6=
EXTT7=
EXTT8=
PLAYORDER=
